<svg width="16" height="14" viewBox="0 0 16 14" fill="none" xmlns="http://www.w3.org/2000/svg">
<path d="M11 4V1.75H5V4H3.5V0.25H12.5V4H11ZM12.5 7.375C12.7125 7.375 12.8906 7.30313 13.0344 7.15938C13.1781 7.01563 13.25 6.8375 13.25 6.625C13.25 6.4125 13.1781 6.23438 13.0344 6.09062C12.8906 5.94688 12.7125 5.875 12.5 5.875C12.2875 5.875 12.1094 5.94688 11.9656 6.09062C11.8219 6.23438 11.75 6.4125 11.75 6.625C11.75 6.8375 11.8219 7.01563 11.9656 7.15938C12.1094 7.30313 12.2875 7.375 12.5 7.375ZM11 12.25V9.25H5V12.25H11ZM12.5 13.75H3.5V10.75H0.5V6.25C0.5 5.6125 0.71875 5.07812 1.15625 4.64688C1.59375 4.21563 2.125 4 2.75 4H13.25C13.8875 4 14.4219 4.21563 14.8531 4.64688C15.2844 5.07812 15.5 5.6125 15.5 6.25V10.75H12.5V13.75ZM14 9.25V6.25C14 6.0375 13.9281 5.85938 13.7844 5.71562C13.6406 5.57188 13.4625 5.5 13.25 5.5H2.75C2.5375 5.5 2.35938 5.57188 2.21563 5.71562C2.07188 5.85938 2 6.0375 2 6.25V9.25H3.5V7.75H12.5V9.25H14Z" fill="#49454E"/>
</svg>
